<?xml version="1.0" standalone="no"?>
<!DOCTYPE svg PUBLIC "-//W3C//DTD SVG 20010904//EN"
 "http://www.w3.org/TR/2001/REC-SVG-20010904/DTD/svg10.dtd">
<svg version="1.0" xmlns="http://www.w3.org/2000/svg"
 width="700.000000pt" height="700.000000pt" viewBox="0 0 700.000000 700.000000"
 preserveAspectRatio="xMidYMid meet">
<metadata>
Created by potrace 1.11, written by Peter Selinger 2001-2013
</metadata>
<g transform="translate(0.000000,700.000000) scale(0.100000,-0.100000)"
fill="#000000" stroke="none">
<path d="M3298 6995 c-2 -1 -41 -5 -88 -9 -100 -7 -225 -22 -295 -36 -27 -5
-61 -12 -75 -14 -596 -109 -1206 -409 -1660 -817 -126 -114 -183 -171 -331
-335 -210 -232 -452 -626 -585 -952 -62 -151 -146 -411 -169 -520 -2 -9 -8
-37 -14 -62 -11 -49 -13 -63 -35 -195 -34 -204 -40 -302 -40 -570 0 -195 8
-350 19 -395 2 -8 6 -42 10 -75 3 -33 8 -67 10 -75 3 -8 7 -31 9 -50 14 -109
105 -457 145 -555 4 -11 27 -69 51 -129 50 -129 132 -304 185 -396 21 -36 46
-80 57 -99 75 -131 224 -339 338 -472 448 -523 1004 -888 1656 -1088 55 -18
109 -33 120 -35 10 -3 51 -12 89 -21 39 -9 79 -19 90 -21 143 -28 152 -29 315
-51 138 -18 533 -24 705 -10 1093 84 2113 722 2696 1684 233 386 403 860 463
1298 8 61 18 128 21 150 18 119 12 597 -9 760 -3 22 -8 62 -11 89 -3 27 -7 51
-9 55 -2 3 -7 29 -10 56 -7 52 -51 259 -66 310 -127 430 -281 759 -508 1085
-59 85 -206 273 -250 319 -179 190 -330 333 -437 414 -5 4 -23 19 -40 32 -16
14 -64 49 -105 77 -41 29 -77 55 -80 59 -12 16 -297 181 -410 236 -122 60
-325 144 -425 177 -144 46 -181 58 -195 61 -8 2 -42 10 -75 19 -61 15 -182 42
-232 50 -46 8 -234 34 -293 41 -54 7 -526 16 -532 10z"/>
</g>
</svg>
