<?xml version="1.0" encoding="UTF-8" standalone="no"?>
<!-- Created with Inkscape (http://www.inkscape.org/) -->

<svg
   xmlns:dc="http://purl.org/dc/elements/1.1/"
   xmlns:cc="http://creativecommons.org/ns#"
   xmlns:rdf="http://www.w3.org/1999/02/22-rdf-syntax-ns#"
   xmlns:svg="http://www.w3.org/2000/svg"
   xmlns="http://www.w3.org/2000/svg"
   xmlns:sodipodi="http://sodipodi.sourceforge.net/DTD/sodipodi-0.dtd"
   xmlns:inkscape="http://www.inkscape.org/namespaces/inkscape"
   width="3.2103207in"
   height="0.72524887in"
   viewBox="0 0 81.542146 18.421321"
   version="1.1"
   id="svg8"
   inkscape:version="0.92.2 5c3e80d, 2017-08-06"
   sodipodi:docname="schemed-optimized.svg"
   inkscape:export-filename="/home/sam/Pictures/schemed.png"
   inkscape:export-xdpi="96"
   inkscape:export-ydpi="96">
  <defs
     id="defs2" />
  <sodipodi:namedview
     id="base"
     pagecolor="#000000"
     bordercolor="#666666"
     borderopacity="1.0"
     inkscape:pageopacity="0"
     inkscape:pageshadow="2"
     inkscape:zoom="3.0715299"
     inkscape:cx="158.65052"
     inkscape:cy="26.863433"
     inkscape:document-units="mm"
     inkscape:current-layer="layer1"
     showgrid="false"
     inkscape:pagecheckerboard="false"
     inkscape:window-width="2880"
     inkscape:window-height="1491"
     inkscape:window-x="0"
     inkscape:window-y="55"
     inkscape:window-maximized="1"
     units="in"
     fit-margin-top="0"
     fit-margin-left="0"
     fit-margin-right="0"
     fit-margin-bottom="0" />
  <metadata
     id="metadata5">
    <rdf:RDF>
      <cc:Work
         rdf:about="">
        <dc:format>image/svg+xml</dc:format>
        <dc:type
           rdf:resource="http://purl.org/dc/dcmitype/StillImage" />
        <dc:title></dc:title>
      </cc:Work>
    </rdf:RDF>
  </metadata>
  <g
     inkscape:label="Layer 1"
     inkscape:groupmode="layer"
     id="layer1"
     transform="translate(-3.479785,-261.96388)">
    <g
       id="g3795"
       transform="matrix(0.06793722,0,0,0.06793722,2.6516776,254.04048)">
      <path
         id="path3783"
         d="m 169.97581,116.62834 c -39.044,-0.035 -81.331991,6.312 -136.060001,17.752 2.786,11.553 6.997,23.69 11.796,35.318 109.813001,-26.153 176.850001,-16.624 239.863001,9.426 4.03,-13.23 10.572,-25.413 18.648,-35.72 -49.595,-18.4 -89.864,-26.737 -134.246,-26.776 z m 186.87,14.11 c -6.61,-0.015 -12.398,0.99 -16.982,3.376 -0.79,0.68 -1.384,1.442 -1.734,2.2 18.56,4.702 36.184,9.745 51.613,15.628 5.153,-4.313 10.78,-8.04 16.833,-11.027 -17.658,-5.47 -35.56,-10.142 -49.732,-10.175 z m -341.454002,5.063 c -0.89,19.648 -5.8770004,24.76 -1.288,59.096 3.89,29.1 15.095,72.41299 61.754011,109.07999 -3.517,-14.455 -5.16,-28.265 -4.587,-43.724 -12.80601,-14.00999 -25.16601,-33.83399 -43.268011,-85.90599 -5.63,-13.404 -8.834,-26.383 -12.612,-38.547 z m 419.545002,14.81 c -14.962,0.188 -29.31,7.998 -40.727,19.942 -13.532,14.156 -23.72,34.396 -28.234,57.824 -4.516,23.42699 -2.557,45.87999 4.785,63.84299 5.976,14.622 15.925,26.615 29.078,32.332 h 0.002 c 4.374,1.97 7.517,3.288 12,3.265 17.044,2.097 33.69,-6.112 46.593,-19.61 13.53301,-14.158 23.71701,-34.396 28.23301,-57.824 4.515,-23.42599 2.56,-45.87999 -4.78,-63.84199 -7.343,-17.963 -20.684,-31.962 -38.59001,-35.227 a 43.482001,43.482001 0 0 0 -8.36,-0.702 z m -113.092,0.222 c -10.18,11.86 -18.49,27.615 -21.48,44.08 23.602,11.794 41.428,32.958 47.72,54.432 0.148,-8.285 0.985,-16.61 2.5,-24.8 3.964,-21.45 12.488,-42.035 25.476,-58.436 -15.95,-5.543 -34.613,-10.52 -54.215,-15.277 z m 114.053,17.745 a 25.86,25.86 0 0 1 3.993,0.41 c 10.53,1.92 19.51701,10.35 25.28501,24.46 5.768,14.112 7.704,33.376 3.786,53.706 -3.918,20.32999 -12.89701,37.60499 -23.52701,48.72599 -10.632,11.12 -22.15,15.812 -32.68,13.892 -10.53,-1.92 -19.517,-10.352 -25.284,-24.463 -5.768,-14.11 -7.702,-33.373 -3.783,-53.70299 3.918,-20.33 12.894,-37.604 23.525,-48.725 9.302,-9.73 19.28,-14.54 28.685,-14.302 z m -254.61,22.328 c -12.71,0.12 -23.37,1.835 -31.446,5.224 -27.724,11.638 -46.13399,28.764 -55.693991,47.918 33.879991,11.84499 50.605991,20.92999 105.841991,23.77799 9.12,-26.44599 27.087,-50.77999 55.36,-65.74199 -28.42,-7.515 -53.842,-11.37 -74.063,-11.177 z m 272.198,6.406 c -10.734,55.25799 -26.578,72.10199 -46.178,94.98999 17.267,1.758 33.788,-9.264 41.44,-38.276 4.17,-15.81199 5.536,-19.18699 4.74,-56.71499 z m -170.577,12.913 -0.066,0.022 c -15.41,-0.246 -30.24,7.657 -41.977,19.933 -13.532,14.157 -23.72,34.39499 -28.234,57.82299 -4.515,23.428 -2.557,45.882 4.785,63.844 2.92,7.144 6.79,13.658 11.517,19.12 5.406,6.65 11.756,11.463 18.757,14.042 2.697,0.853 5.81,1.6 8.315,2.065 17.906,3.266 35.553,-5.08 49.085,-19.237 13.532,-14.157 23.717,-34.397 28.232,-57.825 0.216,-1.492 0.55,-2.617 0.717,-4.068 3.55,-21.95 1.418,-42.855 -5.498,-59.77499 -5.793,-14.175 -15.324,-25.876 -27.885,-31.788 -0.753,-0.37 -1.52,-0.728 -2.305,-1.068 v 0.062 a 43.235001,43.235001 0 0 0 -8.4,-2.434 43.435001,43.435001 0 0 0 -6.975,-0.693 8.5340001,8.5340001 0 0 1 -0.067,-0.022 z m -0.355,17.98 a 25.85,25.85 0 0 1 3.992,0.41 c 10.53,1.92 19.518,10.353 25.285,24.46399 5.768,14.11 7.703,33.373 3.785,53.703 -3.918,20.33 -12.896,37.604 -23.527,48.724 -10.63,11.12 -22.147,15.813 -32.678,13.893 -10.53,-1.92 -19.517,-10.35 -25.285,-24.46 -5.767,-14.112 -7.7,-33.376 -3.783,-53.706 3.918,-20.33 12.895,-37.603 23.525,-48.72399 9.302,-9.73 19.282,-14.54 28.686,-14.304 z m 21.47,32.49699 c -10.736,55.26 -26.58,72.102 -46.18,94.99 17.268,1.76 33.787,-9.263 41.438,-38.275 4.17,-15.812 5.537,-19.187 4.74,-56.715 z m -214.959991,0.62 c -0.603,14.054 0.94,26.203 4.392,39.542 l 0.516,-0.246 c 24.379991,16.45 71.384991,32.672 100.366991,32.224 -1.63,-10.355 -2.06,-21.19 -1.193,-32.12 a 134.61,134.61 0 0 1 2.087,-15.135 c -53.818,-3.222 -74.207,-13.057 -106.167991,-24.264 z m 264.289991,28.05 c -0.09,9.523 -1.072,18.374 -2.595,25.904 a 179.038,179.038 0 0 0 19.27,6.586 c -6.608,-8.252 -11.652,-17.756 -15.186,-27.88 -0.53,-1.522 -1.022,-3.06 -1.488,-4.61 z m -246.26999,40.3 c 4.936,5.788 10.72199,11.266 17.38399,16.3 29.055,21.964 58.6,30.283 89.398,34.95 -4.006,-5.177 -7.465,-10.95 -10.33,-17.138 -1.89,-4.08 -3.525,-8.36 -4.93,-12.783 -32.872,-0.606 -63.45,-8.824 -91.52299,-21.33 z"
         inkscape:connector-curvature="0"
         style="fill:#ffffff" />
    </g>
    <g
       aria-label="SCHEMED"
       style="font-style:normal;font-weight:normal;font-size:2.71748877px;line-height:1.25;font-family:sans-serif;letter-spacing:0px;word-spacing:0px;fill:#000000;fill-opacity:1;stroke:none;stroke-width:0.06793721"
       id="text3799">
      <path
         d="m 45.150665,271.31821 q 0,1.82615 -2.204427,1.82615 -2.204427,0 -2.204427,-1.82615 v -1.10874 h 0.913076 v 1.16091 q 0,0.46958 0.326099,0.73046 0.326099,0.26088 0.965252,0.26088 0.639153,0 0.965252,-0.26088 0.326099,-0.26088 0.326099,-0.70437 0,-0.45654 -0.104352,-0.71742 -0.09131,-0.27392 -0.391318,-0.57393 l -2.295735,-2.24356 q -0.404362,-0.40436 -0.560889,-0.78264 -0.143484,-0.39131 -0.143484,-0.97829 0,-0.87395 0.534802,-1.34353 0.547846,-0.48262 1.643537,-0.48262 2.100075,0 2.100075,1.82615 v 1.10873 h -0.913076 v -1.16091 q 0,-0.46958 -0.313055,-0.73046 -0.30001,-0.26088 -0.913076,-0.26088 -0.613065,0 -0.92612,0.26088 -0.300011,0.26088 -0.300011,0.71742 0,0.45654 0.09131,0.71742 0.09131,0.26087 0.404362,0.54784 l 2.334867,2.24356 q 0.378274,0.41741 0.521757,0.80872 0.143484,0.37828 0.143484,0.96526 z"
         style="font-style:normal;font-variant:normal;font-weight:normal;font-stretch:normal;font-size:13.04394531px;font-family:'Unica One';-inkscape-font-specification:'Unica One';fill:#ffffff;fill-opacity:1;stroke-width:0.06793721"
         id="path863"
         inkscape:connector-curvature="0" />
      <path
         d="m 50.694953,271.31821 v -0.71742 h 0.913076 v 0.71742 q 0,0.87394 -0.534802,1.35657 -0.534801,0.46958 -1.604405,0.46958 -1.069603,0 -1.617449,-0.46958 -0.547846,-0.48263 -0.547846,-1.35657 v -5.21758 q 0,-0.87395 0.534802,-1.34353 0.534802,-0.48262 1.604405,-0.48262 1.069604,0 1.617449,0.48262 0.547846,0.46958 0.547846,1.34353 v 1.23917 h -0.913076 v -1.23917 q 0,-1.04352 -1.239175,-1.04352 -1.239175,0 -1.239175,1.04352 v 5.21758 q 0,1.04351 1.239175,1.04351 1.239175,0 1.239175,-1.04351 z"
         style="font-style:normal;font-variant:normal;font-weight:normal;font-stretch:normal;font-size:13.04394531px;font-family:'Unica One';-inkscape-font-specification:'Unica One';fill:#ffffff;fill-opacity:1;stroke-width:0.06793721"
         id="path865"
         inkscape:connector-curvature="0" />
      <path
         d="m 54.806853,272.9487 h -0.913076 v -8.47856 h 0.913076 v 3.78274 h 2.569657 v -3.78274 h 0.913076 v 8.47856 H 57.37651 v -3.91318 h -2.569657 z"
         style="font-style:normal;font-variant:normal;font-weight:normal;font-stretch:normal;font-size:13.04394531px;font-family:'Unica One';-inkscape-font-specification:'Unica One';fill:#ffffff;fill-opacity:1;stroke-width:0.06793721"
         id="path867"
         inkscape:connector-curvature="0" />
      <path
         d="m 64.747766,272.9487 h -3.847964 v -8.47856 h 3.717524 v 0.78263 h -2.804448 v 3.00011 h 2.282691 v 0.78264 h -2.282691 v 3.13054 h 2.934888 z"
         style="font-style:normal;font-variant:normal;font-weight:normal;font-stretch:normal;font-size:13.04394531px;font-family:'Unica One';-inkscape-font-specification:'Unica One';fill:#ffffff;fill-opacity:1;stroke-width:0.06793721"
         id="path869"
         inkscape:connector-curvature="0" />
      <path
         d="m 67.62151,272.9487 h -0.913076 v -8.47856 h 1.369614 l 1.48701,5.59585 1.500054,-5.59585 h 1.369614 v 8.47856 H 71.52165 v -7.01764 l -1.526142,5.71325 h -0.847856 l -1.526142,-5.71325 z"
         style="font-style:normal;font-variant:normal;font-weight:normal;font-stretch:normal;font-size:13.04394531px;font-family:'Unica One';-inkscape-font-specification:'Unica One';fill:#ffffff;fill-opacity:1;stroke-width:0.06793721"
         id="path871"
         inkscape:connector-curvature="0" />
      <path
         d="m 78.887199,272.9487 h -3.847964 v -8.47856 h 3.717524 v 0.78263 h -2.804448 v 3.00011 h 2.282691 v 0.78264 h -2.282691 v 3.13054 h 2.934888 z"
         style="font-style:normal;font-variant:normal;font-weight:normal;font-stretch:normal;font-size:13.04394531px;font-family:'Unica One';-inkscape-font-specification:'Unica One';fill:#ffffff;fill-opacity:1;stroke-width:0.06793721"
         id="path873"
         inkscape:connector-curvature="0" />
      <path
         d="m 82.947942,272.9487 h -2.100075 v -8.47856 h 2.100075 q 1.017428,0 1.539186,0.48262 0.534801,0.48263 0.534801,1.34353 v 4.82626 q 0,0.87394 -0.521757,1.35657 -0.521758,0.46958 -1.55223,0.46958 z m 1.160911,-1.82615 v -4.82626 q 0,-0.41741 -0.313055,-0.73046 -0.30001,-0.31306 -0.847856,-0.31306 h -1.186999 v 6.91329 h 1.186999 q 0.547846,0 0.847856,-0.30001 0.313055,-0.31305 0.313055,-0.7435 z"
         style="font-style:normal;font-variant:normal;font-weight:normal;font-stretch:normal;font-size:13.04394531px;font-family:'Unica One';-inkscape-font-specification:'Unica One';fill:#ffffff;fill-opacity:1;stroke-width:0.06793721"
         id="path875"
         inkscape:connector-curvature="0" />
    </g>
    <g
       aria-label="Hatch a plan together"
       style="font-style:normal;font-weight:normal;font-size:4.23333311px;line-height:1.25;font-family:sans-serif;letter-spacing:0px;word-spacing:0px;fill:#ffffff;fill-opacity:1;stroke:none;stroke-width:0.26458332"
       id="text842">
      <path
         d="m 42.986851,279.18103 h -0.351399 v -1.42214 h -1.591634 v 1.42214 h -0.3514 v -3.02204 h 0.3514 v 1.28571 h 1.591634 v -1.28571 h 0.351399 z"
         style="font-style:normal;font-variant:normal;font-weight:normal;font-stretch:normal;font-size:4.23333311px;font-family:'Open Sans';-inkscape-font-specification:'Open Sans';fill:#ffffff;fill-opacity:1;stroke-width:0.26458332"
         id="path826"
         inkscape:connector-curvature="0" />
      <path
         d="m 45.159329,279.18103 -0.06821,-0.32246 h -0.01654 q -0.169499,0.21291 -0.338997,0.28939 -0.167432,0.0744 -0.419613,0.0744 -0.33693,0 -0.529166,-0.17363 -0.19017,-0.17363 -0.19017,-0.49403 0,-0.68626 1.097608,-0.71933 l 0.384472,-0.0124 v -0.14056 q 0,-0.26665 -0.115755,-0.39274 -0.113688,-0.12815 -0.365869,-0.12815 -0.283187,0 -0.640788,0.17363 l -0.10542,-0.26252 q 0.167432,-0.091 0.365869,-0.14262 0.200505,-0.0517 0.40101,-0.0517 0.405143,0 0.599446,0.17983 0.196371,0.17984 0.196371,0.57671 v 1.54616 z m -0.775147,-0.24185 q 0.320394,0 0.502295,-0.1757 0.183968,-0.1757 0.183968,-0.49195 v -0.20464 l -0.343131,0.0145 q -0.409278,0.0145 -0.591179,0.12815 -0.179834,0.11162 -0.179834,0.34934 0,0.18603 0.111621,0.28318 0.113688,0.0971 0.31626,0.0971 z"
         style="font-style:normal;font-variant:normal;font-weight:normal;font-stretch:normal;font-size:4.23333311px;font-family:'Open Sans';-inkscape-font-specification:'Open Sans';fill:#ffffff;fill-opacity:1;stroke-width:0.26458332"
         id="path828"
         inkscape:connector-curvature="0" />
      <path
         d="m 46.854315,278.93918 q 0.09095,0 0.1757,-0.0124 0.08475,-0.0145 0.134359,-0.0289 v 0.26252 q -0.05581,0.0269 -0.165365,0.0434 -0.107487,0.0186 -0.194303,0.0186 -0.657324,0 -0.657324,-0.69246 v -1.34772 h -0.324528 v -0.16537 l 0.324528,-0.14263 0.144694,-0.48369 h 0.198437 v 0.52504 h 0.657324 v 0.26665 h -0.657324 v 1.33325 q 0,0.20464 0.09715,0.31419 0.09715,0.10955 0.26665,0.10955 z"
         style="font-style:normal;font-variant:normal;font-weight:normal;font-stretch:normal;font-size:4.23333311px;font-family:'Open Sans';-inkscape-font-specification:'Open Sans';fill:#ffffff;fill-opacity:1;stroke-width:0.26458332"
         id="path830"
         inkscape:connector-curvature="0" />
      <path
         d="m 48.524497,279.22237 q -0.491959,0 -0.762744,-0.30179 -0.268717,-0.30386 -0.268717,-0.85783 0,-0.56844 0.272851,-0.8785 0.274919,-0.31006 0.781348,-0.31006 0.163298,0 0.326595,0.0351 0.163298,0.0351 0.256315,0.0827 l -0.10542,0.29145 q -0.113688,-0.0455 -0.248047,-0.0744 -0.134358,-0.031 -0.237711,-0.031 -0.690397,0 -0.690397,0.88057 0,0.41754 0.167431,0.64079 0.169499,0.22324 0.500228,0.22324 0.283187,0 0.580843,-0.12196 v 0.30386 q -0.227376,0.11782 -0.572575,0.11782 z"
         style="font-style:normal;font-variant:normal;font-weight:normal;font-stretch:normal;font-size:4.23333311px;font-family:'Open Sans';-inkscape-font-specification:'Open Sans';fill:#ffffff;fill-opacity:1;stroke-width:0.26458332"
         id="path832"
         inkscape:connector-curvature="0" />
      <path
         d="m 51.186867,279.18103 v -1.46554 q 0,-0.27699 -0.126091,-0.41341 -0.12609,-0.13643 -0.394808,-0.13643 -0.357601,0 -0.522965,0.1943 -0.163298,0.19431 -0.163298,0.63666 v 1.18442 h -0.343131 v -3.21634 h 0.343131 v 0.97358 q 0,0.1757 -0.01654,0.29146 h 0.02067 q 0.101285,-0.1633 0.28732,-0.25632 0.188103,-0.0951 0.427881,-0.0951 0.415479,0 0.622185,0.19844 0.208772,0.19637 0.208772,0.62631 v 1.47795 z"
         style="font-style:normal;font-variant:normal;font-weight:normal;font-stretch:normal;font-size:4.23333311px;font-family:'Open Sans';-inkscape-font-specification:'Open Sans';fill:#ffffff;fill-opacity:1;stroke-width:0.26458332"
         id="path834"
         inkscape:connector-curvature="0" />
      <path
         d="m 54.725668,279.18103 -0.06821,-0.32246 h -0.01654 q -0.169499,0.21291 -0.338997,0.28939 -0.167432,0.0744 -0.419613,0.0744 -0.33693,0 -0.529166,-0.17363 -0.19017,-0.17363 -0.19017,-0.49403 0,-0.68626 1.097608,-0.71933 l 0.384472,-0.0124 v -0.14056 q 0,-0.26665 -0.115755,-0.39274 -0.113688,-0.12815 -0.365869,-0.12815 -0.283187,0 -0.640788,0.17363 l -0.10542,-0.26252 q 0.167432,-0.091 0.365869,-0.14262 0.200505,-0.0517 0.40101,-0.0517 0.405143,0 0.599446,0.17983 0.196371,0.17984 0.196371,0.57671 v 1.54616 z m -0.775146,-0.24185 q 0.320394,0 0.502295,-0.1757 0.183968,-0.1757 0.183968,-0.49195 v -0.20464 l -0.343131,0.0145 q -0.409278,0.0145 -0.591179,0.12815 -0.179834,0.11162 -0.179834,0.34934 0,0.18603 0.111621,0.28318 0.113688,0.0971 0.31626,0.0971 z"
         style="font-style:normal;font-variant:normal;font-weight:normal;font-stretch:normal;font-size:4.23333311px;font-family:'Open Sans';-inkscape-font-specification:'Open Sans';fill:#ffffff;fill-opacity:1;stroke-width:0.26458332"
         id="path836"
         inkscape:connector-curvature="0" />
      <path
         d="m 57.842791,279.22237 q -0.221175,0 -0.405144,-0.0806 -0.181901,-0.0827 -0.305924,-0.25218 h -0.02481 q 0.02481,0.19843 0.02481,0.3762 v 0.93224 h -0.343132 v -3.28248 h 0.279053 l 0.04754,0.31005 h 0.01654 q 0.132292,-0.18603 0.307992,-0.26871 0.175699,-0.0827 0.403076,-0.0827 0.450618,0 0.694531,0.308 0.24598,0.30799 0.24598,0.86403 0,0.5581 -0.250114,0.86816 -0.248047,0.30799 -0.690398,0.30799 z m -0.04961,-2.05672 q -0.347265,0 -0.502295,0.19224 -0.155029,0.19223 -0.159163,0.61184 v 0.0765 q 0,0.47749 0.159163,0.68419 0.159164,0.20464 0.510564,0.20464 0.293522,0 0.458886,-0.23771 0.167432,-0.23771 0.167432,-0.65526 0,-0.42374 -0.167432,-0.64905 -0.165364,-0.22738 -0.467155,-0.22738 z"
         style="font-style:normal;font-variant:normal;font-weight:normal;font-stretch:normal;font-size:4.23333311px;font-family:'Open Sans';-inkscape-font-specification:'Open Sans';fill:#ffffff;fill-opacity:1;stroke-width:0.26458332"
         id="path838"
         inkscape:connector-curvature="0" />
      <path
         d="m 59.727947,279.18103 h -0.343132 v -3.21634 h 0.343132 z"
         style="font-style:normal;font-variant:normal;font-weight:normal;font-stretch:normal;font-size:4.23333311px;font-family:'Open Sans';-inkscape-font-specification:'Open Sans';fill:#ffffff;fill-opacity:1;stroke-width:0.26458332"
         id="path840"
         inkscape:connector-curvature="0" />
      <path
         d="m 61.852883,279.18103 -0.06821,-0.32246 h -0.01654 q -0.169499,0.21291 -0.338998,0.28939 -0.167431,0.0744 -0.419612,0.0744 -0.336931,0 -0.529167,-0.17363 -0.190169,-0.17363 -0.190169,-0.49403 0,-0.68626 1.097607,-0.71933 l 0.384473,-0.0124 v -0.14056 q 0,-0.26665 -0.115756,-0.39274 -0.113688,-0.12815 -0.365869,-0.12815 -0.283186,0 -0.640787,0.17363 l -0.10542,-0.26252 q 0.167431,-0.091 0.365869,-0.14262 0.200504,-0.0517 0.401009,-0.0517 0.405143,0 0.599447,0.17983 0.19637,0.17984 0.19637,0.57671 v 1.54616 z m -0.775147,-0.24185 q 0.320394,0 0.502295,-0.1757 0.183968,-0.1757 0.183968,-0.49195 v -0.20464 l -0.343131,0.0145 q -0.409277,0.0145 -0.591178,0.12815 -0.179834,0.11162 -0.179834,0.34934 0,0.18603 0.111621,0.28318 0.113688,0.0971 0.316259,0.0971 z"
         style="font-style:normal;font-variant:normal;font-weight:normal;font-stretch:normal;font-size:4.23333311px;font-family:'Open Sans';-inkscape-font-specification:'Open Sans';fill:#ffffff;fill-opacity:1;stroke-width:0.26458332"
         id="path842"
         inkscape:connector-curvature="0" />
      <path
         d="m 64.366423,279.18103 v -1.46554 q 0,-0.27699 -0.126091,-0.41341 -0.12609,-0.13643 -0.394808,-0.13643 -0.355534,0 -0.520898,0.19224 -0.165365,0.19223 -0.165365,0.63458 v 1.18856 H 62.81613 v -2.26549 h 0.279053 l 0.05581,0.31005 h 0.01654 q 0.105419,-0.16743 0.295589,-0.25838 0.190169,-0.093 0.423746,-0.093 0.409278,0 0.615983,0.19844 0.206706,0.19637 0.206706,0.63045 v 1.47795 z"
         style="font-style:normal;font-variant:normal;font-weight:normal;font-stretch:normal;font-size:4.23333311px;font-family:'Open Sans';-inkscape-font-specification:'Open Sans';fill:#ffffff;fill-opacity:1;stroke-width:0.26458332"
         id="path844"
         inkscape:connector-curvature="0" />
      <path
         d="m 67.243768,278.93918 q 0.09095,0 0.1757,-0.0124 0.08475,-0.0145 0.134359,-0.0289 v 0.26252 q -0.05581,0.0269 -0.165365,0.0434 -0.107487,0.0186 -0.194303,0.0186 -0.657325,0 -0.657325,-0.69246 v -1.34772 h -0.324528 v -0.16537 l 0.324528,-0.14263 0.144694,-0.48369 h 0.198438 v 0.52504 h 0.657324 v 0.26665 h -0.657324 v 1.33325 q 0,0.20464 0.09715,0.31419 0.09715,0.10955 0.26665,0.10955 z"
         style="font-style:normal;font-variant:normal;font-weight:normal;font-stretch:normal;font-size:4.23333311px;font-family:'Open Sans';-inkscape-font-specification:'Open Sans';fill:#ffffff;fill-opacity:1;stroke-width:0.26458332"
         id="path846"
         inkscape:connector-curvature="0" />
      <path
         d="m 69.964014,278.04622 q 0,0.55397 -0.279053,0.86609 -0.279053,0.31006 -0.771012,0.31006 -0.303858,0 -0.539502,-0.14263 -0.235645,-0.14262 -0.363802,-0.40927 -0.128158,-0.26665 -0.128158,-0.62425 0,-0.55398 0.276986,-0.86197 0.276985,-0.31006 0.768945,-0.31006 0.475423,0 0.754476,0.31626 0.28112,0.31626 0.28112,0.85577 z m -1.725993,0 q 0,0.43408 0.173633,0.66145 0.173632,0.22738 0.510563,0.22738 0.33693,0 0.510563,-0.22531 0.1757,-0.22738 0.1757,-0.66352 0,-0.43202 -0.1757,-0.65526 -0.173633,-0.22531 -0.514697,-0.22531 -0.336931,0 -0.508496,0.22117 -0.171566,0.22118 -0.171566,0.6594 z"
         style="font-style:normal;font-variant:normal;font-weight:normal;font-stretch:normal;font-size:4.23333311px;font-family:'Open Sans';-inkscape-font-specification:'Open Sans';fill:#ffffff;fill-opacity:1;stroke-width:0.26458332"
         id="path848"
         inkscape:connector-curvature="0" />
      <path
         d="m 72.417612,276.91554 v 0.21704 l -0.419613,0.0496 q 0.05788,0.0723 0.103353,0.19017 0.04547,0.11575 0.04547,0.26251 0,0.3328 -0.227376,0.53124 -0.227376,0.19843 -0.624251,0.19843 -0.101286,0 -0.19017,-0.0165 -0.219108,0.11575 -0.219108,0.29145 0,0.093 0.07648,0.13849 0.07648,0.0434 0.262517,0.0434 h 0.401009 q 0.367936,0 0.564306,0.15503 0.198438,0.15503 0.198438,0.45062 0,0.3762 -0.30179,0.57257 -0.301791,0.19844 -0.880567,0.19844 -0.444417,0 -0.686263,-0.16536 -0.239778,-0.16537 -0.239778,-0.46716 0,-0.2067 0.132291,-0.3576 0.132292,-0.15089 0.372071,-0.20464 -0.08682,-0.0393 -0.146762,-0.12195 -0.05788,-0.0827 -0.05788,-0.19224 0,-0.12402 0.06615,-0.21704 0.06615,-0.093 0.208772,-0.17983 -0.175699,-0.0723 -0.28732,-0.24598 -0.109555,-0.17364 -0.109555,-0.39688 0,-0.37207 0.223243,-0.57257 0.223242,-0.20258 0.632519,-0.20258 0.177767,0 0.320394,0.0414 z m -1.806608,2.64583 q 0,0.18397 0.155029,0.27905 0.155029,0.0951 0.444417,0.0951 0.432015,0 0.638721,-0.13023 0.208773,-0.12816 0.208773,-0.34933 0,-0.18397 -0.113688,-0.25632 -0.113689,-0.0703 -0.427881,-0.0703 H 71.10503 q -0.233577,0 -0.363802,0.11162 -0.130224,0.11163 -0.130224,0.3204 z m 0.186035,-1.9203 q 0,0.23771 0.134359,0.35967 0.134358,0.12196 0.374137,0.12196 0.502295,0 0.502295,-0.48783 0,-0.51056 -0.508496,-0.51056 -0.241846,0 -0.372071,0.13022 -0.130224,0.13023 -0.130224,0.38654 z"
         style="font-style:normal;font-variant:normal;font-weight:normal;font-stretch:normal;font-size:4.23333311px;font-family:'Open Sans';-inkscape-font-specification:'Open Sans';fill:#ffffff;fill-opacity:1;stroke-width:0.26458332"
         id="path850"
         inkscape:connector-curvature="0" />
      <path
         d="m 73.843883,279.22237 q -0.502295,0 -0.79375,-0.30592 -0.289388,-0.30593 -0.289388,-0.84956 0,-0.54777 0.268717,-0.87023 0.270785,-0.32247 0.725537,-0.32247 0.425814,0 0.673861,0.28112 0.248047,0.27906 0.248047,0.73794 v 0.21704 h -1.560628 q 0.01033,0.39895 0.200504,0.60565 0.192236,0.20671 0.539502,0.20671 0.365869,0 0.72347,-0.15296 v 0.30592 q -0.181901,0.0786 -0.345199,0.11162 -0.16123,0.0351 -0.390673,0.0351 z m -0.09302,-2.06085 q -0.272851,0 -0.436149,0.17776 -0.16123,0.17777 -0.190169,0.49196 h 1.184424 q 0,-0.32453 -0.144694,-0.49609 -0.144694,-0.17363 -0.413412,-0.17363 z"
         style="font-style:normal;font-variant:normal;font-weight:normal;font-stretch:normal;font-size:4.23333311px;font-family:'Open Sans';-inkscape-font-specification:'Open Sans';fill:#ffffff;fill-opacity:1;stroke-width:0.26458332"
         id="path852"
         inkscape:connector-curvature="0" />
      <path
         d="m 75.991552,278.93918 q 0.09095,0 0.1757,-0.0124 0.08475,-0.0145 0.134358,-0.0289 v 0.26252 q -0.05581,0.0269 -0.165364,0.0434 -0.107487,0.0186 -0.194304,0.0186 -0.657324,0 -0.657324,-0.69246 v -1.34772 H 74.96009 v -0.16537 l 0.324528,-0.14263 0.144694,-0.48369 h 0.198438 v 0.52504 h 0.657324 v 0.26665 H 75.62775 v 1.33325 q 0,0.20464 0.09715,0.31419 0.09715,0.10955 0.266651,0.10955 z"
         style="font-style:normal;font-variant:normal;font-weight:normal;font-stretch:normal;font-size:4.23333311px;font-family:'Open Sans';-inkscape-font-specification:'Open Sans';fill:#ffffff;fill-opacity:1;stroke-width:0.26458332"
         id="path854"
         inkscape:connector-curvature="0" />
      <path
         d="m 78.306658,279.18103 v -1.46554 q 0,-0.27699 -0.126091,-0.41341 -0.12609,-0.13643 -0.394808,-0.13643 -0.3576,0 -0.522965,0.1943 -0.163298,0.19431 -0.163298,0.63666 v 1.18442 h -0.343131 v -3.21634 h 0.343131 v 0.97358 q 0,0.1757 -0.01654,0.29146 h 0.02067 q 0.101285,-0.1633 0.28732,-0.25632 0.188103,-0.0951 0.427881,-0.0951 0.415479,0 0.622185,0.19844 0.208772,0.19637 0.208772,0.62631 v 1.47795 z"
         style="font-style:normal;font-variant:normal;font-weight:normal;font-stretch:normal;font-size:4.23333311px;font-family:'Open Sans';-inkscape-font-specification:'Open Sans';fill:#ffffff;fill-opacity:1;stroke-width:0.26458332"
         id="path856"
         inkscape:connector-curvature="0" />
      <path
         d="m 80.309634,279.22237 q -0.502295,0 -0.79375,-0.30592 -0.289388,-0.30593 -0.289388,-0.84956 0,-0.54777 0.268718,-0.87023 0.270784,-0.32247 0.725537,-0.32247 0.425814,0 0.673861,0.28112 0.248046,0.27906 0.248046,0.73794 v 0.21704 H 79.58203 q 0.01033,0.39895 0.200505,0.60565 0.192236,0.20671 0.539502,0.20671 0.365869,0 0.72347,-0.15296 v 0.30592 q -0.181901,0.0786 -0.345199,0.11162 -0.16123,0.0351 -0.390674,0.0351 z m -0.09302,-2.06085 q -0.272852,0 -0.436149,0.17776 -0.161231,0.17777 -0.19017,0.49196 h 1.184424 q 0,-0.32453 -0.144694,-0.49609 -0.144694,-0.17363 -0.413411,-0.17363 z"
         style="font-style:normal;font-variant:normal;font-weight:normal;font-stretch:normal;font-size:4.23333311px;font-family:'Open Sans';-inkscape-font-specification:'Open Sans';fill:#ffffff;fill-opacity:1;stroke-width:0.26458332"
         id="path858"
         inkscape:connector-curvature="0" />
      <path
         d="m 82.759097,276.87419 q 0.150896,0 0.270785,0.0248 l -0.04754,0.31833 q -0.14056,-0.031 -0.248047,-0.031 -0.274919,0 -0.471289,0.22324 -0.194304,0.22324 -0.194304,0.55604 v 1.21543 h -0.343131 v -2.26549 h 0.283187 l 0.03927,0.41961 h 0.01654 q 0.126091,-0.22118 0.303858,-0.34107 0.177767,-0.11989 0.390673,-0.11989 z"
         style="font-style:normal;font-variant:normal;font-weight:normal;font-stretch:normal;font-size:4.23333311px;font-family:'Open Sans';-inkscape-font-specification:'Open Sans';fill:#ffffff;fill-opacity:1;stroke-width:0.26458332"
         id="path860"
         inkscape:connector-curvature="0" />
    </g>
  </g>
</svg>
