<?xml version="1.0" encoding="UTF-8" standalone="no"?>
<!-- Created with Inkscape (http://www.inkscape.org/) -->

<svg
   xmlns:dc="http://purl.org/dc/elements/1.1/"
   xmlns:cc="http://creativecommons.org/ns#"
   xmlns:rdf="http://www.w3.org/1999/02/22-rdf-syntax-ns#"
   xmlns:svg="http://www.w3.org/2000/svg"
   xmlns="http://www.w3.org/2000/svg"
   xmlns:sodipodi="http://sodipodi.sourceforge.net/DTD/sodipodi-0.dtd"
   xmlns:inkscape="http://www.inkscape.org/namespaces/inkscape"
   width="1.4203433in"
   height="1.4203451in"
   viewBox="0 0 36.076719 36.076765"
   version="1.1"
   id="svg8"
   inkscape:version="0.92.2 (5c3e80d, 2017-08-06)"
   sodipodi:docname="schemed-logo.svg">
  <defs
     id="defs2">
    <clipPath
       id="clipPath3715"
       clipPathUnits="userSpaceOnUse">
      <path
         inkscape:connector-curvature="0"
         id="path3713"
         d="M 0,566 H 800 V 0 H 0 Z" />
    </clipPath>
    <linearGradient
       id="linearGradient3739"
       spreadMethod="pad"
       gradientTransform="matrix(162.38307,-152.54175,-152.54175,-162.38307,379.85352,294.43555)"
       gradientUnits="userSpaceOnUse"
       y2="0.0088906223"
       x2="1.0675266"
       y1="0"
       x1="0">
      <stop
         id="stop3733"
         offset="0"
         style="stop-opacity:1;stop-color:#00af95" />
      <stop
         id="stop3735"
         offset="0.99999994"
         style="stop-opacity:1;stop-color:#00af95" />
      <stop
         id="stop3737"
         offset="1"
         style="stop-opacity:0;stop-color:#009b84" />
    </linearGradient>
    <clipPath
       id="clipPath3749"
       clipPathUnits="userSpaceOnUse">
      <path
         inkscape:connector-curvature="0"
         id="path3747"
         d="M 0,566 H 800 V 0 H 0 Z" />
    </clipPath>
  </defs>
  <sodipodi:namedview
     id="base"
     pagecolor="#363636"
     bordercolor="#666666"
     borderopacity="1.0"
     inkscape:pageopacity="0"
     inkscape:pageshadow="2"
     inkscape:zoom="2.8"
     inkscape:cx="88.50717"
     inkscape:cy="35.856153"
     inkscape:document-units="mm"
     inkscape:current-layer="layer1"
     showgrid="false"
     inkscape:window-width="1920"
     inkscape:window-height="1017"
     inkscape:window-x="-8"
     inkscape:window-y="-8"
     inkscape:window-maximized="1"
     units="in"
     fit-margin-top="0"
     fit-margin-left="0"
     fit-margin-right="0"
     fit-margin-bottom="0" />
  <metadata
     id="metadata5">
    <rdf:RDF>
      <cc:Work
         rdf:about="">
        <dc:format>image/svg+xml</dc:format>
        <dc:type
           rdf:resource="http://purl.org/dc/dcmitype/StillImage" />
        <dc:title></dc:title>
      </cc:Work>
    </rdf:RDF>
  </metadata>
  <g
     inkscape:label="Layer 1"
     inkscape:groupmode="layer"
     id="layer1"
     transform="translate(-2.466913,-253.54272)">
    <g
       transform="matrix(0.08850544,0,0,-0.08850544,-14.896925,296.62814)"
       inkscape:label="flat-calendar-icon"
       id="g3707">
      <g
         id="g3709">
        <g
           clip-path="url(#clipPath3715)"
           id="g3711">
          <g
             transform="translate(603.8105,283)"
             id="g3717">
            <path
               inkscape:connector-curvature="0"
               id="path3719"
               style="fill:#00d1b2;fill-opacity:1;fill-rule:nonzero;stroke:none"
               d="m 0,0 c 0,-112.562 -91.249,-203.811 -203.811,-203.811 -5.983,0 -11.903,0.257 -17.758,0.764 -104.247,8.994 -186.052,96.47 -186.052,203.047 0,112.561 91.249,203.811 203.81,203.811 109.819,0 199.347,-86.859 203.646,-195.618 C -0.055,5.478 0,2.743 0,0" />
          </g>
        </g>
      </g>
      <g
         id="g3721">
        <g
           id="g3723">
          <g
             id="g3729">
            <g
               id="g3731">
              <path
                 inkscape:connector-curvature="0"
                 id="path3741"
                 style="fill:url(#linearGradient3739);stroke:none"
                 d="M 279.172,183.603 382.241,79.953 c 5.856,-0.506 11.775,-0.764 17.759,-0.764 v 0 c 112.562,0 203.811,91.249 203.811,203.811 v 0 c 0,2.743 -0.055,5.478 -0.166,8.193 v 0 l -83.037,83.258 z" />
            </g>
          </g>
        </g>
      </g>
      <g
         id="g3743">
        <g
           clip-path="url(#clipPath3749)"
           id="g3745">
          <g
             transform="translate(528.498,354.0283)"
             id="g3751">
            <path
               inkscape:connector-curvature="0"
               id="path3753"
               style="fill:#c8c7c3;fill-opacity:1;fill-rule:nonzero;stroke:none"
               d="m 0,0 v -150.629 c 0,-16.775 -13.602,-30.38 -30.379,-30.38 h -177.82 c -16.778,0 -30.379,13.605 -30.379,30.38 V 0 c 0,16.778 13.601,30.38 30.379,30.38 h 177.82 C -13.602,30.38 0,16.778 0,0" />
          </g>
          <g
             transform="translate(522.2842,354.0283)"
             id="g3755">
            <path
               inkscape:connector-curvature="0"
               id="path3757"
               style="fill:#ffffff;fill-opacity:1;fill-rule:nonzero;stroke:none"
               d="m 0,0 v -150.629 c 0,-16.775 -13.602,-30.38 -30.38,-30.38 h -177.819 c -16.778,0 -30.379,13.605 -30.379,30.38 V 0 c 0,16.778 13.601,30.38 30.379,30.38 H -30.38 C -13.602,30.38 0,16.778 0,0" />
          </g>
          <g
             transform="translate(528.498,354.0283)"
             id="g3759">
            <path
               inkscape:connector-curvature="0"
               id="path3761"
               style="fill:#ce2d4e;fill-opacity:1;fill-rule:nonzero;stroke:none"
               d="M 0,0 V -22.66 H -238.578 V 0 c 0,16.778 13.601,30.38 30.379,30.38 h 177.82 C -13.602,30.38 0,16.778 0,0" />
          </g>
          <g
             transform="translate(522.2842,354.0283)"
             id="g3763">
            <path
               inkscape:connector-curvature="0"
               id="path3765"
               style="fill:#ff3860;fill-opacity:1;fill-rule:nonzero;stroke:none"
               d="M 0,0 V -22.66 H -238.578 V 0 c 0,16.778 13.601,30.38 30.379,30.38 H -30.38 C -13.602,30.38 0,16.778 0,0" />
          </g>
          <g
             transform="translate(516.3008,354.3906)"
             id="g3767">
            <path
               inkscape:connector-curvature="0"
               id="path3769"
               style="fill:#c8c7c3;fill-opacity:1;fill-rule:nonzero;stroke:none"
               d="m 0,0 v -150.628 c 0,-16.777 -13.603,-30.38 -30.38,-30.38 h -177.819 c -16.778,0 -30.38,13.603 -30.38,30.38 V 0 c 0,16.778 13.602,30.38 30.38,30.38 H -30.38 C -13.603,30.38 0,16.778 0,0" />
          </g>
          <g
             transform="translate(510.0859,354.3906)"
             id="g3771">
            <path
               inkscape:connector-curvature="0"
               id="path3773"
               style="fill:#ffffff;fill-opacity:1;fill-rule:nonzero;stroke:none"
               d="m 0,0 v -150.628 c 0,-16.777 -13.602,-30.38 -30.38,-30.38 h -177.818 c -16.778,0 -30.38,13.603 -30.38,30.38 V 0 c 0,16.778 13.602,30.38 30.38,30.38 H -30.38 C -13.602,30.38 0,16.778 0,0" />
          </g>
          <g
             transform="translate(516.3008,354.3906)"
             id="g3775">
            <path
               inkscape:connector-curvature="0"
               id="path3777"
               style="fill:#ce2d4e;fill-opacity:1;fill-rule:nonzero;stroke:none"
               d="M 0,0 V -22.66 H -238.579 V 0 c 0,16.778 13.602,30.38 30.38,30.38 H -30.38 C -13.603,30.38 0,16.778 0,0" />
          </g>
          <g
             transform="translate(510.0859,354.3906)"
             id="g3779">
            <path
               inkscape:connector-curvature="0"
               id="path3781"
               style="fill:#ff3860;fill-opacity:1;fill-rule:nonzero;stroke:none"
               d="M 0,0 V -22.66 H -238.578 V 0 c 0,16.778 13.602,30.38 30.38,30.38 H -30.38 C -13.602,30.38 0,16.778 0,0" />
          </g>
          <path
             inkscape:connector-curvature="0"
             id="path3783"
             style="fill:#c8c7c3;fill-opacity:1;fill-rule:nonzero;stroke:none"
             d="m 364.224,278.714 h -26.521 v 26.466 h 26.521 z" />
          <path
             inkscape:connector-curvature="0"
             id="path3785"
             style="fill:#c8c7c3;fill-opacity:1;fill-rule:nonzero;stroke:none"
             d="m 403.949,278.743 h -26.521 v 26.463 h 26.521 z" />
          <path
             inkscape:connector-curvature="0"
             id="path3787"
             style="fill:#c8c7c3;fill-opacity:1;fill-rule:nonzero;stroke:none"
             d="m 443.73,278.743 h -26.521 v 26.463 h 26.521 z" />
          <path
             inkscape:connector-curvature="0"
             id="path3789"
             style="fill:#ff3860;fill-opacity:1;fill-rule:nonzero;stroke:none"
             d="M 483.512,278.743 H 456.99 v 26.463 h 26.522 z" />
          <path
             inkscape:connector-curvature="0"
             id="path3791"
             style="fill:#c8c7c3;fill-opacity:1;fill-rule:nonzero;stroke:none"
             d="m 324.416,239.002 h -26.521 v 26.466 h 26.521 z" />
          <path
             inkscape:connector-curvature="0"
             id="path3793"
             style="fill:#c8c7c3;fill-opacity:1;fill-rule:nonzero;stroke:none"
             d="m 364.196,238.974 h -26.521 v 26.466 h 26.521 z" />
          <path
             inkscape:connector-curvature="0"
             id="path3795"
             style="fill:#c8c7c3;fill-opacity:1;fill-rule:nonzero;stroke:none"
             d="m 403.922,239.002 h -26.521 v 26.466 h 26.521 z" />
          <path
             inkscape:connector-curvature="0"
             id="path3797"
             style="fill:#c8c7c3;fill-opacity:1;fill-rule:nonzero;stroke:none"
             d="m 443.704,239.002 h -26.521 v 26.466 h 26.521 z" />
          <path
             inkscape:connector-curvature="0"
             id="path3799"
             style="fill:#ff3860;fill-opacity:1;fill-rule:nonzero;stroke:none"
             d="m 483.484,239.002 h -26.521 v 26.466 h 26.521 z" />
          <path
             inkscape:connector-curvature="0"
             id="path3801"
             style="fill:#c8c7c3;fill-opacity:1;fill-rule:nonzero;stroke:none"
             d="m 324.388,199.262 h -26.521 v 26.466 h 26.521 z" />
          <path
             inkscape:connector-curvature="0"
             id="path3803"
             style="fill:#c8c7c3;fill-opacity:1;fill-rule:nonzero;stroke:none"
             d="m 364.169,199.235 h -26.521 v 26.463 h 26.521 z" />
          <path
             inkscape:connector-curvature="0"
             id="path3805"
             style="fill:#c8c7c3;fill-opacity:1;fill-rule:nonzero;stroke:none"
             d="m 403.895,199.262 h -26.521 v 26.466 h 26.521 z" />
          <path
             inkscape:connector-curvature="0"
             id="path3807"
             style="fill:#c8c7c3;fill-opacity:1;fill-rule:nonzero;stroke:none"
             d="m 443.675,199.262 h -26.521 v 26.466 h 26.521 z" />
          <g
             transform="translate(351.0264,358.25)"
             id="g3809">
            <path
               inkscape:connector-curvature="0"
               id="path3811"
               style="fill:#b73946;fill-opacity:1;fill-rule:nonzero;stroke:none"
               d="m 0,0 c 0,-6.059 -4.912,-10.97 -10.972,-10.97 -6.059,0 -10.97,4.911 -10.97,10.97 0,6.059 4.911,10.971 10.97,10.971 C -4.912,10.971 0,6.059 0,0" />
          </g>
          <g
             transform="translate(355.7217,384.7705)"
             id="g3813">
            <path
               inkscape:connector-curvature="0"
               id="path3815"
               style="fill:#e2e1e0;fill-opacity:1;fill-rule:nonzero;stroke:none"
               d="m 0,0 v 4.762 c 0,8.652 -7.016,15.667 -15.667,15.667 -8.652,0 -15.667,-7.015 -15.667,-15.667 v -21.031 c 0,-8.653 7.015,-15.668 15.667,-15.668 0.058,0 0.114,0.006 0.171,0.01 0.03,-0.001 0.058,-0.01 0.088,-0.01 2.934,0 5.312,2.379 5.312,5.313 0,2.935 -2.378,5.312 -5.312,5.312 -0.109,0 -0.211,-0.026 -0.317,-0.033 -2.857,0.033 -5.165,2.354 -5.165,5.218 V 4.762 c 0,2.884 2.338,5.222 5.223,5.222 2.884,0 5.222,-2.338 5.222,-5.222 V 0 Z" />
          </g>
          <g
             transform="translate(452.3506,358.25)"
             id="g3817">
            <path
               inkscape:connector-curvature="0"
               id="path3819"
               style="fill:#b73946;fill-opacity:1;fill-rule:nonzero;stroke:none"
               d="m 0,0 c 0,-6.059 -4.912,-10.97 -10.972,-10.97 -6.059,0 -10.969,4.911 -10.969,10.97 0,6.059 4.91,10.971 10.969,10.971 C -4.912,10.971 0,6.059 0,0" />
          </g>
          <g
             transform="translate(457.0469,384.7705)"
             id="g3821">
            <path
               inkscape:connector-curvature="0"
               id="path3823"
               style="fill:#e2e1e0;fill-opacity:1;fill-rule:nonzero;stroke:none"
               d="m 0,0 v 4.762 c 0,8.652 -7.016,15.667 -15.668,15.667 -8.652,0 -15.666,-7.015 -15.666,-15.667 v -21.031 c 0,-8.653 7.014,-15.668 15.666,-15.668 0.06,0 0.115,0.006 0.171,0.01 0.03,-0.001 0.058,-0.01 0.088,-0.01 2.934,0 5.313,2.379 5.313,5.313 0,2.935 -2.379,5.312 -5.313,5.312 -0.108,0 -0.21,-0.026 -0.317,-0.033 -2.857,0.033 -5.164,2.354 -5.164,5.218 V 4.762 c 0,2.884 2.338,5.222 5.222,5.222 2.884,0 5.224,-2.338 5.224,-5.222 V 0 Z" />
          </g>
        </g>
      </g>
    </g>
    <text
       xml:space="preserve"
       style="font-style:normal;font-variant:normal;font-weight:normal;font-stretch:normal;font-size:12.81020164px;line-height:1.25;font-family:'Open Sans';-inkscape-font-specification:'Open Sans';letter-spacing:0px;word-spacing:0px;fill:#ffffff;fill-opacity:1;stroke:none;stroke-width:0.32025504"
       x="39.408951"
       y="288.3121"
       id="text3884-3"><tspan
         sodipodi:role="line"
         id="tspan3882-2"
         x="39.408951"
         y="299.66257"
         style="font-style:normal;font-variant:normal;font-weight:normal;font-stretch:normal;font-family:'Open Sans';-inkscape-font-specification:'Open Sans';fill:#ffffff;stroke-width:0.32025504" /></text>
    <text
       xml:space="preserve"
       style="font-style:normal;font-weight:normal;font-size:10.58333302px;line-height:1.25;font-family:sans-serif;letter-spacing:0px;word-spacing:0px;fill:#000000;fill-opacity:1;stroke:none;stroke-width:0.26458332"
       x="39.215031"
       y="283.39285"
       id="text86"><tspan
         sodipodi:role="line"
         id="tspan84"
         x="39.215031"
         y="293.04834"
         style="stroke-width:0.26458332" /></text>
  </g>
  <g
     inkscape:groupmode="layer"
     id="layer3"
     inkscape:label="Layer 3"
     style="display:inline"
     transform="translate(-2.466913,-7.3427182)" />
</svg>
