<?xml version="1.0" encoding="UTF-8" standalone="no"?>
<!-- Created with Inkscape (http://www.inkscape.org/) -->

<svg
   xmlns:dc="http://purl.org/dc/elements/1.1/"
   xmlns:cc="http://creativecommons.org/ns#"
   xmlns:rdf="http://www.w3.org/1999/02/22-rdf-syntax-ns#"
   xmlns:svg="http://www.w3.org/2000/svg"
   xmlns="http://www.w3.org/2000/svg"
   xmlns:sodipodi="http://sodipodi.sourceforge.net/DTD/sodipodi-0.dtd"
   xmlns:inkscape="http://www.inkscape.org/namespaces/inkscape"
   width="1.2755315in"
   height="0.72524887in"
   viewBox="0 0 32.398501 18.421321"
   version="1.1"
   id="svg8"
   inkscape:version="0.92.2 5c3e80d, 2017-08-06"
   sodipodi:docname="schemed-compact.svg"
   inkscape:export-filename="/home/sam/Pictures/schemed.png"
   inkscape:export-xdpi="96"
   inkscape:export-ydpi="96">
  <defs
     id="defs2" />
  <sodipodi:namedview
     id="base"
     pagecolor="#000000"
     bordercolor="#666666"
     borderopacity="1.0"
     inkscape:pageopacity="0"
     inkscape:pageshadow="2"
     inkscape:zoom="3.0715299"
     inkscape:cx="245.24621"
     inkscape:cy="39.886244"
     inkscape:document-units="mm"
     inkscape:current-layer="layer1"
     showgrid="false"
     inkscape:pagecheckerboard="false"
     inkscape:window-width="2880"
     inkscape:window-height="1491"
     inkscape:window-x="0"
     inkscape:window-y="55"
     inkscape:window-maximized="1"
     units="in"
     fit-margin-top="0"
     fit-margin-left="0"
     fit-margin-right="0"
     fit-margin-bottom="0" />
  <metadata
     id="metadata5">
    <rdf:RDF>
      <cc:Work
         rdf:about="">
        <dc:format>image/svg+xml</dc:format>
        <dc:type
           rdf:resource="http://purl.org/dc/dcmitype/StillImage" />
        <dc:title></dc:title>
      </cc:Work>
    </rdf:RDF>
  </metadata>
  <g
     inkscape:label="Layer 1"
     inkscape:groupmode="layer"
     id="layer1"
     transform="translate(-3.479785,-261.96388)">
    <g
       id="g3795"
       transform="matrix(0.06793722,0,0,0.06793722,2.6516776,254.04048)">
      <path
         id="path3783"
         d="m 169.97581,116.62834 c -39.044,-0.035 -81.331991,6.312 -136.060001,17.752 2.786,11.553 6.997,23.69 11.796,35.318 109.813001,-26.153 176.850001,-16.624 239.863001,9.426 4.03,-13.23 10.572,-25.413 18.648,-35.72 -49.595,-18.4 -89.864,-26.737 -134.246,-26.776 z m 186.87,14.11 c -6.61,-0.015 -12.398,0.99 -16.982,3.376 -0.79,0.68 -1.384,1.442 -1.734,2.2 18.56,4.702 36.184,9.745 51.613,15.628 5.153,-4.313 10.78,-8.04 16.833,-11.027 -17.658,-5.47 -35.56,-10.142 -49.732,-10.175 z m -341.454002,5.063 c -0.89,19.648 -5.8770004,24.76 -1.288,59.096 3.89,29.1 15.095,72.41299 61.754011,109.07999 -3.517,-14.455 -5.16,-28.265 -4.587,-43.724 -12.80601,-14.00999 -25.16601,-33.83399 -43.268011,-85.90599 -5.63,-13.404 -8.834,-26.383 -12.612,-38.547 z m 419.545002,14.81 c -14.962,0.188 -29.31,7.998 -40.727,19.942 -13.532,14.156 -23.72,34.396 -28.234,57.824 -4.516,23.42699 -2.557,45.87999 4.785,63.84299 5.976,14.622 15.925,26.615 29.078,32.332 h 0.002 c 4.374,1.97 7.517,3.288 12,3.265 17.044,2.097 33.69,-6.112 46.593,-19.61 13.53301,-14.158 23.71701,-34.396 28.23301,-57.824 4.515,-23.42599 2.56,-45.87999 -4.78,-63.84199 -7.343,-17.963 -20.684,-31.962 -38.59001,-35.227 a 43.482001,43.482001 0 0 0 -8.36,-0.702 z m -113.092,0.222 c -10.18,11.86 -18.49,27.615 -21.48,44.08 23.602,11.794 41.428,32.958 47.72,54.432 0.148,-8.285 0.985,-16.61 2.5,-24.8 3.964,-21.45 12.488,-42.035 25.476,-58.436 -15.95,-5.543 -34.613,-10.52 -54.215,-15.277 z m 114.053,17.745 a 25.86,25.86 0 0 1 3.993,0.41 c 10.53,1.92 19.51701,10.35 25.28501,24.46 5.768,14.112 7.704,33.376 3.786,53.706 -3.918,20.32999 -12.89701,37.60499 -23.52701,48.72599 -10.632,11.12 -22.15,15.812 -32.68,13.892 -10.53,-1.92 -19.517,-10.352 -25.284,-24.463 -5.768,-14.11 -7.702,-33.373 -3.783,-53.70299 3.918,-20.33 12.894,-37.604 23.525,-48.725 9.302,-9.73 19.28,-14.54 28.685,-14.302 z m -254.61,22.328 c -12.71,0.12 -23.37,1.835 -31.446,5.224 -27.724,11.638 -46.13399,28.764 -55.693991,47.918 33.879991,11.84499 50.605991,20.92999 105.841991,23.77799 9.12,-26.44599 27.087,-50.77999 55.36,-65.74199 -28.42,-7.515 -53.842,-11.37 -74.063,-11.177 z m 272.198,6.406 c -10.734,55.25799 -26.578,72.10199 -46.178,94.98999 17.267,1.758 33.788,-9.264 41.44,-38.276 4.17,-15.81199 5.536,-19.18699 4.74,-56.71499 z m -170.577,12.913 -0.066,0.022 c -15.41,-0.246 -30.24,7.657 -41.977,19.933 -13.532,14.157 -23.72,34.39499 -28.234,57.82299 -4.515,23.428 -2.557,45.882 4.785,63.844 2.92,7.144 6.79,13.658 11.517,19.12 5.406,6.65 11.756,11.463 18.757,14.042 2.697,0.853 5.81,1.6 8.315,2.065 17.906,3.266 35.553,-5.08 49.085,-19.237 13.532,-14.157 23.717,-34.397 28.232,-57.825 0.216,-1.492 0.55,-2.617 0.717,-4.068 3.55,-21.95 1.418,-42.855 -5.498,-59.77499 -5.793,-14.175 -15.324,-25.876 -27.885,-31.788 -0.753,-0.37 -1.52,-0.728 -2.305,-1.068 v 0.062 a 43.235001,43.235001 0 0 0 -8.4,-2.434 43.435001,43.435001 0 0 0 -6.975,-0.693 8.5340001,8.5340001 0 0 1 -0.067,-0.022 z m -0.355,17.98 a 25.85,25.85 0 0 1 3.992,0.41 c 10.53,1.92 19.518,10.353 25.285,24.46399 5.768,14.11 7.703,33.373 3.785,53.703 -3.918,20.33 -12.896,37.604 -23.527,48.724 -10.63,11.12 -22.147,15.813 -32.678,13.893 -10.53,-1.92 -19.517,-10.35 -25.285,-24.46 -5.767,-14.112 -7.7,-33.376 -3.783,-53.706 3.918,-20.33 12.895,-37.603 23.525,-48.72399 9.302,-9.73 19.282,-14.54 28.686,-14.304 z m 21.47,32.49699 c -10.736,55.26 -26.58,72.102 -46.18,94.99 17.268,1.76 33.787,-9.263 41.438,-38.275 4.17,-15.812 5.537,-19.187 4.74,-56.715 z m -214.959991,0.62 c -0.603,14.054 0.94,26.203 4.392,39.542 l 0.516,-0.246 c 24.379991,16.45 71.384991,32.672 100.366991,32.224 -1.63,-10.355 -2.06,-21.19 -1.193,-32.12 a 134.61,134.61 0 0 1 2.087,-15.135 c -53.818,-3.222 -74.207,-13.057 -106.167991,-24.264 z m 264.289991,28.05 c -0.09,9.523 -1.072,18.374 -2.595,25.904 a 179.038,179.038 0 0 0 19.27,6.586 c -6.608,-8.252 -11.652,-17.756 -15.186,-27.88 -0.53,-1.522 -1.022,-3.06 -1.488,-4.61 z m -246.26999,40.3 c 4.936,5.788 10.72199,11.266 17.38399,16.3 29.055,21.964 58.6,30.283 89.398,34.95 -4.006,-5.177 -7.465,-10.95 -10.33,-17.138 -1.89,-4.08 -3.525,-8.36 -4.93,-12.783 -32.872,-0.606 -63.45,-8.824 -91.52299,-21.33 z"
         inkscape:connector-curvature="0"
         style="fill:#ffffff" />
    </g>
  </g>
</svg>
